<?xml version="1.0" standalone="no"?>
<!DOCTYPE svg PUBLIC "-//W3C//DTD SVG 20010904//EN"
 "http://www.w3.org/TR/2001/REC-SVG-20010904/DTD/svg10.dtd">
<svg version="1.0" xmlns="http://www.w3.org/2000/svg"
 width="1024.000000pt" height="1024.000000pt" viewBox="0 0 1024.000000 1024.000000"
 preserveAspectRatio="xMidYMid meet">
<metadata>
Created by potrace 1.14, written by Peter Selinger 2001-2017
</metadata>
<g transform="translate(0.000000,1024.000000) scale(0.100000,-0.100000)"
fill="#000000" stroke="none">
<path d="M5136 10028 c-11 -64 -75 -566 -97 -772 l-23 -209 -79 -83 c-177
-187 -460 -379 -844 -573 -161 -81 -307 -151 -317 -151 -2 0 -35 -14 -72 -30
l-67 -31 73 -72 c168 -165 280 -330 280 -412 0 -29 -4 -34 -27 -37 -16 -2 188
-3 452 -3 299 0 540 -5 640 -13 747 -60 1381 -215 1860 -454 66 -32 124 -63
130 -67 18 -14 110 -64 104 -57 -8 8 83 180 138 264 72 108 204 222 258 222
33 0 12 17 -47 38 -156 53 -328 73 -453 52 -41 -7 -77 -11 -79 -9 -3 2 -16
112 -30 244 -28 249 -89 706 -110 815 -3 14 -8 43 -11 65 -9 64 -46 279 -51
294 -7 23 -11 11 -28 -89 -9 -52 -25 -144 -36 -205 -36 -211 -90 -602 -120
-875 -16 -151 -32 -298 -35 -326 l-6 -50 -57 7 c-82 10 -112 18 -159 46 -139
78 -80 258 167 511 55 57 100 107 100 112 0 5 -10 12 -22 16 -45 13 -305 134
-453 210 -305 156 -561 324 -738 484 l-94 85 -7 80 c-7 81 -17 168 -62 530
-27 221 -33 268 -39 305 -2 14 -9 56 -15 95 -6 38 -13 71 -14 73 -2 1 -6 -12
-10 -30z"/>
<path d="M3440 9057 c0 -4 -16 -99 -35 -210 -59 -345 -107 -694 -140 -1012
-21 -204 -22 -208 -42 -201 -43 17 -202 18 -293 2 -115 -20 -147 -41 -50 -33
36 4 196 11 355 17 160 6 318 14 353 16 l64 6 -6 46 c-3 26 -8 70 -11 97 -7
74 -27 247 -41 355 -13 105 -69 496 -88 615 -25 153 -50 283 -57 295 -5 8 -9
11 -9 7z"/>
<path d="M3763 7643 c9 -2 23 -2 30 0 6 3 -1 5 -18 5 -16 0 -22 -2 -12 -5z"/>
<path d="M2670 7599 c-34 -6 -33 -6 13 -8 46 -1 59 3 35 11 -7 2 -29 1 -48 -3z"/>
<path d="M2508 7583 c6 -2 18 -2 25 0 6 3 1 5 -13 5 -14 0 -19 -2 -12 -5z"/>
<path d="M2285 7570 c-18 -8 -17 -9 8 -9 16 -1 26 3 22 9 -3 6 -7 10 -8 9 -1
0 -11 -4 -22 -9z"/>
<path d="M2393 7573 c9 -2 25 -2 35 0 9 3 1 5 -18 5 -19 0 -27 -2 -17 -5z"/>
<path d="M2098 7543 c6 -2 18 -2 25 0 6 3 1 5 -13 5 -14 0 -19 -2 -12 -5z"/>
<path d="M2013 7533 c9 -2 23 -2 30 0 6 3 -1 5 -18 5 -16 0 -22 -2 -12 -5z"/>
<path d="M1978 7506 c-3 -14 -1 -31 3 -38 6 -8 9 1 9 25 0 42 -6 48 -12 13z"/>
<path d="M1972 7410 c0 -14 2 -19 5 -12 2 6 2 18 0 25 -3 6 -5 1 -5 -13z"/>
<path d="M1961 7334 c0 -11 3 -14 6 -6 3 7 2 16 -1 19 -3 4 -6 -2 -5 -13z"/>
<path d="M2028 7263 c7 -3 16 -2 19 1 4 3 -2 6 -13 5 -11 0 -14 -3 -6 -6z"/>
<path d="M2175 7230 c3 -5 8 -10 11 -10 2 0 4 5 4 10 0 6 -5 10 -11 10 -5 0
-7 -4 -4 -10z"/>
<path d="M2790 6985 c19 -19 36 -35 39 -35 3 0 -10 16 -29 35 -19 19 -36 35
-39 35 -3 0 10 -16 29 -35z"/>
<path d="M4274 6991 c-39 -3 -78 -12 -86 -18 -38 -32 -39 -57 -44 -1341 -2
-686 -9 -1332 -14 -1437 -22 -430 -4 -617 69 -692 63 -66 176 -87 456 -87 274
1 516 24 685 65 604 149 1009 691 1071 1432 41 499 -135 1078 -441 1452 -270
328 -616 518 -1115 611 -97 18 -450 27 -581 15z"/>
<path d="M2850 6903 c0 -10 -57 -13 -247 -13 l-248 -1 -169 -166 -168 -166 50
-46 c102 -93 190 -238 245 -401 30 -88 51 -179 44 -186 -2 -3 -27 4 -55 14
-98 38 -229 158 -335 310 -28 39 -53 72 -56 72 -3 0 -25 -31 -48 -68 -135
-218 -395 -462 -662 -621 -227 -137 -603 -294 -813 -341 -32 -7 -58 -16 -58
-20 0 -4 30 -15 68 -25 307 -82 666 -244 907 -409 230 -157 465 -393 572 -573
14 -24 28 -43 32 -43 4 0 32 35 61 78 105 150 270 294 363 316 l29 7 -7 -43
c-10 -64 -69 -237 -106 -310 -44 -88 -107 -174 -174 -237 l-57 -54 174 -168
173 -168 271 -1 271 0 6 128 c11 198 8 1990 -3 2452 -12 485 -21 625 -43 666
-9 16 -16 23 -17 17z"/>
<path d="M7398 6889 c152 -119 285 -251 391 -384 67 -84 145 -195 137 -195 -3
0 -52 31 -108 68 -155 103 -212 136 -359 206 -137 66 -310 130 -335 124 -9 -2
19 -49 85 -142 381 -537 524 -930 524 -1436 0 -532 -174 -983 -547 -1419 -25
-30 -46 -58 -46 -63 0 -4 166 -8 368 -8 l369 0 173 168 172 167 -70 72 c-75
76 -143 182 -192 299 -33 80 -84 249 -78 263 6 17 102 -28 172 -81 71 -53 173
-165 234 -255 19 -29 39 -53 43 -53 5 0 29 31 53 68 142 222 373 434 661 607
211 127 505 256 740 325 127 37 148 46 125 53 -8 3 -58 17 -110 31 -500 142
-997 434 -1263 742 -60 70 -174 222 -197 263 -5 9 -10 14 -13 11 -2 -3 -28
-41 -58 -85 -76 -112 -210 -244 -289 -283 -58 -29 -100 -40 -100 -26 0 24 48
190 71 248 62 150 122 241 219 334 l55 52 -40 37 c-22 20 -98 93 -168 162
l-129 126 -248 5 c-137 3 -246 3 -242 -1z"/>
<path d="M7017 3530 c-112 -114 -255 -232 -390 -321 -50 -34 -97 -68 -104 -76
-6 -8 -14 -14 -18 -13 -3 1 -77 -34 -163 -78 -187 -95 -303 -141 -555 -217
-220 -66 -395 -107 -562 -132 -107 -16 -186 -18 -710 -16 l-590 2 -30 -47
c-16 -26 -79 -98 -139 -160 -61 -62 -105 -116 -100 -120 5 -5 56 -28 114 -52
159 -66 478 -228 637 -324 215 -129 411 -275 525 -393 l47 -48 11 -115 c6 -63
13 -133 15 -155 3 -22 12 -105 20 -185 9 -80 18 -161 20 -180 2 -19 11 -93 20
-165 22 -178 22 -177 50 -374 14 -96 27 -176 29 -179 5 -5 24 85 31 153 4 28
10 75 15 105 5 30 11 78 15 105 3 28 7 61 10 75 13 73 67 559 90 803 12 133
19 171 33 185 150 146 385 309 667 461 236 128 568 282 580 269 4 -4 21 -126
40 -288 19 -160 122 -790 131 -799 30 -30 182 1054 220 1566 l7 93 26 -8 c14
-4 94 -7 176 -6 136 1 159 4 251 31 142 43 146 46 90 67 -131 50 -270 230
-390 504 -40 92 -42 101 -28 116 9 9 14 16 12 16 -3 0 -49 -45 -103 -100z
m-493 -537 c3 -21 8 -74 11 -118 3 -44 8 -96 10 -115 4 -31 13 -121 30 -295 4
-33 8 -66 10 -72 9 -28 -15 -10 -77 55 -151 160 -230 275 -250 363 -24 102 26
168 151 201 101 26 108 25 115 -19z"/>
<path d="M2898 3565 c-3 -14 -1 -28 3 -31 5 -3 9 9 9 25 0 38 -6 40 -12 6z"/>
<path d="M2760 3237 c-31 -28 -65 -67 -59 -67 3 0 25 20 49 45 46 47 52 60 10
22z"/>
<path d="M2656 3144 c-5 -14 -4 -15 9 -4 17 14 19 20 6 20 -5 0 -12 -7 -15
-16z"/>
<path d="M2315 2980 c-3 -5 -1 -10 4 -10 6 0 11 5 11 10 0 6 -2 10 -4 10 -3 0
-8 -4 -11 -10z"/>
<path d="M1981 2714 c0 -11 3 -14 6 -6 3 7 2 16 -1 19 -3 4 -6 -2 -5 -13z"/>
<path d="M3208 2683 c6 -2 18 -2 25 0 6 3 1 5 -13 5 -14 0 -19 -2 -12 -5z"/>
<path d="M2693 2674 c7 -7 148 -6 156 1 2 3 -33 5 -79 5 -46 0 -81 -3 -77 -6z"/>
<path d="M3248 2674 c-3 -3 -4 -17 -2 -32 2 -15 13 -112 24 -217 18 -158 43
-362 76 -600 12 -89 94 -569 98 -572 15 -15 92 430 151 872 6 44 24 200 30
270 4 33 8 71 10 85 2 14 7 64 10 113 l7 87 -199 0 c-110 0 -202 -3 -205 -6z"/>
<path d="M2518 2662 c12 -8 72 -4 72 4 0 2 -19 4 -42 4 -26 0 -38 -4 -30 -8z"/>
<path d="M2393 2653 c9 -2 23 -2 30 0 6 3 -1 5 -18 5 -16 0 -22 -2 -12 -5z"/>
<path d="M2244 2641 c5 -8 56 -3 56 5 0 2 -14 4 -31 4 -16 0 -28 -4 -25 -9z"/>
<path d="M2138 2633 c6 -2 18 -2 25 0 6 3 1 5 -13 5 -14 0 -19 -2 -12 -5z"/>
</g>
</svg>
